<svg width="159" height="33" viewBox="0 0 159 33" fill="none" xmlns="http://www.w3.org/2000/svg">
<path d="M11.9 25.34C9.4267 25.34 7.30333 24.815 5.53 23.765C3.75667 22.6917 2.39167 21.21 1.435 19.32C0.47833 17.4067 0 15.2017 0 12.705C0 10.2083 0.47833 8.00333 1.435 6.09C2.39167 4.17667 3.75667 2.68333 5.53 1.61C7.30333 0.536667 9.4267 0 11.9 0C14.84 0 17.2433 0.734999 19.11 2.205C21 3.65167 22.1783 5.69333 22.645 8.33H17.71C17.4067 7 16.7533 5.96167 15.75 5.215C14.77 4.445 13.4633 4.06 11.83 4.06C9.5667 4.06 7.79333 4.83 6.51 6.37C5.22667 7.91 4.585 10.0217 4.585 12.705C4.585 15.3883 5.22667 17.5 6.51 19.04C7.79333 20.5567 9.5667 21.315 11.83 21.315C13.4633 21.315 14.77 20.965 15.75 20.265C16.7533 19.5417 17.4067 18.55 17.71 17.29H22.645C22.1783 19.81 21 21.7817 19.11 23.205C17.2433 24.6283 14.84 25.34 11.9 25.34ZM31.7907 25.34C30.2973 25.34 29.0723 25.1067 28.1157 24.64C27.159 24.15 26.4473 23.5083 25.9807 22.715C25.514 21.9217 25.2807 21.0467 25.2807 20.09C25.2807 18.48 25.9107 17.1733 27.1707 16.17C28.4307 15.1667 30.3207 14.665 32.8407 14.665H37.2507V14.245C37.2507 13.055 36.9123 12.18 36.2357 11.62C35.559 11.06 34.719 10.78 33.7157 10.78C32.8057 10.78 32.0123 11.0017 31.3357 11.445C30.659 11.865 30.239 12.495 30.0757 13.335H25.7007C25.8173 12.075 26.2373 10.9783 26.9607 10.045C27.7073 9.11167 28.664 8.4 29.8307 7.91C30.9973 7.39667 32.304 7.14 33.7507 7.14C36.224 7.14 38.1723 7.75833 39.5957 8.995C41.019 10.2317 41.7307 11.9817 41.7307 14.245V24.92H37.9157L37.4957 22.12C36.9823 23.0533 36.259 23.8233 35.3257 24.43C34.4157 25.0367 33.2373 25.34 31.7907 25.34ZM32.8057 21.84C34.089 21.84 35.0807 21.42 35.7807 20.58C36.504 19.74 36.959 18.7017 37.1457 17.465H33.3307C32.1407 17.465 31.289 17.6867 30.7757 18.13C30.2623 18.55 30.0057 19.075 30.0057 19.705C30.0057 20.3817 30.2623 20.9067 30.7757 21.28C31.289 21.6533 31.9657 21.84 32.8057 21.84ZM52.4809 25.34C50.9409 25.34 49.5875 25.095 48.4209 24.605C47.2542 24.0917 46.3209 23.3917 45.6209 22.505C44.9209 21.6183 44.5009 20.5917 44.3609 19.425H48.8759C49.0159 20.1017 49.3892 20.685 49.9959 21.175C50.6259 21.6417 51.4309 21.875 52.4109 21.875C53.3909 21.875 54.1025 21.6767 54.5459 21.28C55.0125 20.8833 55.2459 20.4283 55.2459 19.915C55.2459 19.1683 54.9192 18.6667 54.2659 18.41C53.6125 18.13 52.7025 17.8617 51.5359 17.605C50.7892 17.4417 50.0309 17.2433 49.2609 17.01C48.4909 16.7767 47.7792 16.485 47.1259 16.135C46.4959 15.7617 45.9825 15.295 45.5859 14.735C45.1892 14.1517 44.9909 13.44 44.9909 12.6C44.9909 11.06 45.5975 9.765 46.8109 8.715C48.0475 7.665 49.7742 7.14 51.9909 7.14C54.0442 7.14 55.6775 7.61833 56.8909 8.575C58.1275 9.53167 58.8625 10.85 59.0959 12.53H54.8609C54.6042 11.2467 53.6359 10.605 51.9559 10.605C51.1159 10.605 50.4625 10.7683 49.9959 11.095C49.5525 11.4217 49.3309 11.83 49.3309 12.32C49.3309 12.8333 49.6692 13.2417 50.3459 13.545C51.0225 13.8483 51.9209 14.1283 53.0409 14.385C54.2542 14.665 55.3625 14.98 56.3659 15.33C57.3925 15.6567 58.2092 16.1583 58.8159 16.835C59.4225 17.4883 59.7259 18.4333 59.7259 19.67C59.7492 20.7433 59.4692 21.7117 58.8859 22.575C58.3025 23.4383 57.4625 24.115 56.3659 24.605C55.2692 25.095 53.9742 25.34 52.4809 25.34ZM70.1827 24.92C68.3627 24.92 66.9043 24.4767 65.8077 23.59C64.711 22.7033 64.1627 21.1283 64.1627 18.865V11.305H61.1877V7.56H64.1627L64.6877 2.905H68.6427V7.56H73.3327V11.305H68.6427V18.9C68.6427 19.74 68.8177 20.3233 69.1677 20.65C69.541 20.9533 70.171 21.105 71.0577 21.105H73.2277V24.92H70.1827ZM82.4641 25.34C80.9708 25.34 79.7458 25.1067 78.7891 24.64C77.8324 24.15 77.1208 23.5083 76.6541 22.715C76.1874 21.9217 75.9541 21.0467 75.9541 20.09C75.9541 18.48 76.5841 17.1733 77.8441 16.17C79.1041 15.1667 80.9941 14.665 83.5141 14.665H87.9241V14.245C87.9241 13.055 87.5858 12.18 86.9091 11.62C86.2324 11.06 85.3924 10.78 84.3891 10.78C83.4791 10.78 82.6858 11.0017 82.0091 11.445C81.3324 11.865 80.9124 12.495 80.7491 13.335H76.3741C76.4908 12.075 76.9108 10.9783 77.6341 10.045C78.3808 9.11167 79.3374 8.4 80.5041 7.91C81.6708 7.39667 82.9774 7.14 84.4241 7.14C86.8974 7.14 88.8458 7.75833 90.2691 8.995C91.6924 10.2317 92.4041 11.9817 92.4041 14.245V24.92H88.5891L88.1691 22.12C87.6558 23.0533 86.9324 23.8233 85.9991 24.43C85.0891 25.0367 83.9108 25.34 82.4641 25.34ZM83.4791 21.84C84.7624 21.84 85.7541 21.42 86.4541 20.58C87.1774 19.74 87.6324 18.7017 87.8191 17.465H84.0041C82.8141 17.465 81.9624 17.6867 81.4491 18.13C80.9358 18.55 80.6791 19.075 80.6791 19.705C80.6791 20.3817 80.9358 20.9067 81.4491 21.28C81.9624 21.6533 82.6391 21.84 83.4791 21.84ZM99.2034 24.92L94.1284 7.56H98.5734L101.583 20.055L105.083 7.56H110.053L113.553 20.055L116.598 7.56H121.043L115.933 24.92H111.278L107.568 11.935L103.858 24.92H99.2034ZM128.266 25.34C126.773 25.34 125.548 25.1067 124.591 24.64C123.635 24.15 122.923 23.5083 122.456 22.715C121.99 21.9217 121.756 21.0467 121.756 20.09C121.756 18.48 122.386 17.1733 123.646 16.17C124.906 15.1667 126.796 14.665 129.316 14.665H133.726V14.245C133.726 13.055 133.388 12.18 132.711 11.62C132.035 11.06 131.195 10.78 130.191 10.78C129.281 10.78 128.488 11.0017 127.811 11.445C127.135 11.865 126.715 12.495 126.551 13.335H122.176C122.293 12.075 122.713 10.9783 123.436 10.045C124.183 9.11167 125.14 8.4 126.306 7.91C127.473 7.39667 128.78 7.14 130.226 7.14C132.7 7.14 134.648 7.75833 136.071 8.995C137.495 10.2317 138.206 11.9817 138.206 14.245V24.92H134.391L133.971 22.12C133.458 23.0533 132.735 23.8233 131.801 24.43C130.891 25.0367 129.713 25.34 128.266 25.34ZM129.281 21.84C130.565 21.84 131.556 21.42 132.256 20.58C132.98 19.74 133.435 18.7017 133.621 17.465H129.806C128.616 17.465 127.765 17.6867 127.251 18.13C126.738 18.55 126.481 19.075 126.481 19.705C126.481 20.3817 126.738 20.9067 127.251 21.28C127.765 21.6533 128.441 21.84 129.281 21.84ZM143.37 32.62L147.395 23.765H146.345L139.59 7.56H144.455L149.32 19.775L154.395 7.56H159.155L148.13 32.62H143.37Z" fill="white"/>
</svg>
